Love for All and Sharing is the first step to solving all the problems of humanity.

Websites I want to share.

     
http://www.shareintl.org/

     
http://www.lightmiddleway.com


Thank you very much

No credit for me...credit to EVERYONE for sharing

 
http://thepiratebay.org/user/raymondhome/

STORY
The Prometheus has dropped out of orbit. Communications and life support systems are down. Situation Critical: Status of Crew and Prisoner unknown...

IMDb RATING: 7.5/10 (49 votes)

Language:English
Source:DVD
Encoder: Tony2
Duration : 1h 24mn
Overall bit rate : 1 337 Kbps
............................................
Video
Format : xvid
Codec ID : xvid
Duration : 1h 24mn
Bit rate : 1 196 Kbps
Width : 720 pixels
Height : 304 pixels
Display aspect ratio : 2.35:1
Frame rate : 25.000 fps
Resolution : 24 bits
Bits/(Pixel*Frame) : 0.219
Stream size : 722 MiB (89%)
............................................
Audio
ID : 1
Format : MPEG Audio
Format version : Version 1
Format profile : Layer 3
Format settings, Mode : Joint stereo / MS Stereo
Codec ID : 55
Codec ID/Hint : MP3
Duration : 1h 24mn
Bit rate mode : Constant
Bit rate : 128 Kbps
Channel(s) : 2 channels
Sampling rate : 48.0 KHz
Resolution : 16 bits
Stream size : 77.2 MiB (10%)
Alignment : Aligned on interleaves
Interleave, duration : 24 ms (0.60 video frame)
Interleave, preload duration : 24 ms

credit pitic BIG BIG BIG TIME & to all the people who made it possible for us to share this...especially EVERYONE involve in the production of the movie...IF YOU LIKE IT...BUY IT :)

*****help what we can with others in need...the world is ONE big family*****

SCREENSHOTS
 
http://www.starshare.ro/bitbucket/Hunter.Prey.2009.DVDRip.XVID.FEEL-FREE.avi_thumbs_%5B2010.07.24_21.17.16%5D.jpg